<svg xmlns="http://www.w3.org/2000/svg" viewBox="0 0 700 724" role="img" aria-label="Ratatui Kit">
<path d="M0,0 L434,0 L454,3 L474,9 L497,20 L511,30 L525,42 L535,53 L547,70 L558,93 L564,113 L567,133 L567,591 L564,611 L558,631 L547,654 L537,668 L525,682 L514,692 L497,704 L474,715 L454,721 L434,724 L0,724 L-20,721 L-40,715 L-63,704 L-77,694 L-91,682 L-101,671 L-113,654 L-124,631 L-130,611 L-133,591 L-133,133 L-130,113 L-124,93 L-113,70 L-103,56 L-91,42 L-80,32 L-63,20 L-40,9 L-20,3 Z " fill="#064A4F" transform="translate(133,0)"/>
<path d="M0,0 L96,0 L96,160 L93,180 L87,200 L76,223 L66,237 L54,251 L43,261 L26,273 L3,284 L-17,290 L-37,293 L-195,292 L-195,200 L-189,188 L-180,178 L-158,156 L-151,148 L-125,122 L-118,114 L-95,91 L-88,83 L-67,62 L-60,54 L-36,30 L-29,22 L-12,5 L-4,1 Z " fill="#FCA91C" transform="translate(604,431)"/>
<path d="M0,0 L8,0 L19,3 L28,9 L43,23 L56,35 L71,49 L86,63 L99,75 L114,89 L126,100 L143,116 L158,130 L171,142 L187,157 L200,169 L215,183 L228,195 L236,203 L241,213 L243,222 L242,233 L238,243 L231,252 L216,267 L208,274 L175,307 L167,314 L142,339 L134,346 L108,372 L100,379 L76,403 L68,410 L44,434 L36,441 L30,446 L22,450 L17,451 L5,451 L-6,447 L-15,440 L-21,430 L-23,424 L-23,408 L-18,396 L-9,386 L8,369 L15,361 L72,304 L79,296 L133,242 L137,234 L139,226 L138,215 L134,206 L127,198 L120,191 L112,184 L96,169 L81,155 L65,140 L52,128 L37,114 L22,100 L9,88 L-7,73 L-22,59 L-28,49 L-30,43 L-31,34 L-29,24 L-24,14 L-20,9 L-11,3 Z " fill="#FCF8EF" transform="translate(146,128)"/>
<path d="M0,0 L7,0 L7,60 L4,80 L-2,100 L-10,99 L-22,93 L-32,84 L-39,73 L-43,61 L-44,56 L-44,45 L-41,33 L-36,23 L-27,13 L-18,6 L-9,2 Z " fill="#064A4F" transform="translate(693,531)"/>
<path d="M0,0 L12,2 L20,7 L26,14 L30,24 L30,35 L27,44 L18,54 L9,58 L-1,59 L-11,56 L-20,50 L-26,40 L-27,37 L-27,22 L-22,12 L-17,7 L-9,2 Z " fill="#064A4F" transform="translate(557,565)"/>
<path d="M0,0 L8,1 L14,5 L18,12 L18,20 L13,28 L7,31 L-3,31 L-10,26 L-13,20 L-13,13 L-9,5 L-4,1 Z " fill="#064A4F" transform="translate(501,634)"/>
</svg>
